<svg width="30" height="31" viewBox="0 0 30 31" fill="none" xmlns="http://www.w3.org/2000/svg">
<path d="M27.1875 27.9282C27.0632 27.9282 26.944 27.8788 26.856 27.7909C26.7681 27.703 26.7188 27.5838 26.7188 27.4595V26.522C26.7188 26.3977 26.7681 26.2784 26.856 26.1905C26.944 26.1026 27.0632 26.0532 27.1875 26.0532C27.3118 26.0532 27.4311 26.1026 27.519 26.1905C27.6069 26.2784 27.6563 26.3977 27.6563 26.522V27.4595C27.6563 27.5838 27.6069 27.703 27.519 27.7909C27.4311 27.8788 27.3118 27.9282 27.1875 27.9282ZM27.1875 4.49072C27.0632 4.49072 26.944 4.44134 26.856 4.35343C26.7681 4.26552 26.7188 4.14629 26.7188 4.02197V3.08447C26.7188 2.96015 26.7681 2.84092 26.856 2.75302C26.944 2.66511 27.0632 2.61572 27.1875 2.61572C27.3118 2.61572 27.4311 2.66511 27.519 2.75302C27.6069 2.84092 27.6563 2.96015 27.6563 3.08447V4.02197C27.6563 4.14629 27.6069 4.26552 27.519 4.35343C27.4311 4.44134 27.3118 4.49072 27.1875 4.49072ZM27.1875 18.0845H23.122C22.9977 18.0845 22.8785 18.0351 22.7906 17.9472C22.7027 17.8593 22.6533 17.74 22.6533 17.6157C22.6533 17.4914 22.7027 17.3722 22.7906 17.2843C22.8785 17.1964 22.9977 17.147 23.122 17.147H27.1875C27.3118 17.147 27.4311 17.1964 27.519 17.2843C27.6069 17.3722 27.6563 17.4914 27.6563 17.6157C27.6563 17.74 27.6069 17.8593 27.519 17.9472C27.4311 18.0351 27.3118 18.0845 27.1875 18.0845ZM27.1875 22.772H23.122C22.9977 22.772 22.8785 22.7226 22.7906 22.6347C22.7027 22.5468 22.6533 22.4275 22.6533 22.3032C22.6533 22.1789 22.7027 22.0597 22.7906 21.9718C22.8785 21.8839 22.9977 21.8345 23.122 21.8345H27.1875C27.3118 21.8345 27.4311 21.8839 27.519 21.9718C27.6069 22.0597 27.6563 22.1789 27.6563 22.3032C27.6563 22.4275 27.6069 22.5468 27.519 22.6347C27.4311 22.7226 27.3118 22.772 27.1875 22.772ZM27.1875 20.4282H23.122C22.9977 20.4282 22.8785 20.3788 22.7906 20.2909C22.7027 20.203 22.6533 20.0838 22.6533 19.9595C22.6533 19.8352 22.7027 19.7159 22.7906 19.628C22.8785 19.5401 22.9977 19.4907 23.122 19.4907H27.1875C27.3118 19.4907 27.4311 19.5401 27.519 19.628C27.6069 19.7159 27.6563 19.8352 27.6563 19.9595C27.6563 20.0838 27.6069 20.203 27.519 20.2909C27.4311 20.3788 27.3118 20.4282 27.1875 20.4282ZM27.1875 13.397H23.122C22.9977 13.397 22.8785 13.3476 22.7906 13.2597C22.7027 13.1718 22.6533 13.0525 22.6533 12.9282C22.6533 12.8039 22.7027 12.6847 22.7906 12.5968C22.8785 12.5089 22.9977 12.4595 23.122 12.4595H27.1875C27.3118 12.4595 27.4311 12.5089 27.519 12.5968C27.6069 12.6847 27.6563 12.8039 27.6563 12.9282C27.6563 13.0525 27.6069 13.1718 27.519 13.2597C27.4311 13.3476 27.3118 13.397 27.1875 13.397ZM27.1875 8.70947H23.122C22.9977 8.70947 22.8785 8.66009 22.7906 8.57218C22.7027 8.48427 22.6533 8.36504 22.6533 8.24072C22.6533 8.1164 22.7027 7.99717 22.7906 7.90927C22.8785 7.82136 22.9977 7.77197 23.122 7.77197H27.1875C27.3118 7.77197 27.4311 7.82136 27.519 7.90927C27.6069 7.99717 27.6563 8.1164 27.6563 8.24072C27.6563 8.36504 27.6069 8.48427 27.519 8.57218C27.4311 8.66009 27.3118 8.70947 27.1875 8.70947ZM27.1875 11.0532H23.122C22.9977 11.0532 22.8785 11.0038 22.7906 10.9159C22.7027 10.828 22.6533 10.7088 22.6533 10.5845C22.6533 10.4602 22.7027 10.3409 22.7906 10.253C22.8785 10.1651 22.9977 10.1157 23.122 10.1157H27.1875C27.3118 10.1157 27.4311 10.1651 27.519 10.253C27.6069 10.3409 27.6563 10.4602 27.6563 10.5845C27.6563 10.7088 27.6069 10.828 27.519 10.9159C27.4311 11.0038 27.3118 11.0532 27.1875 11.0532ZM27.1875 15.7407H23.122C22.9977 15.7407 22.8785 15.6913 22.7906 15.6034C22.7027 15.5155 22.6533 15.3963 22.6533 15.272C22.6533 15.1477 22.7027 15.0284 22.7906 14.9405C22.8785 14.8526 22.9977 14.8032 23.122 14.8032H27.1875C27.3118 14.8032 27.4311 14.8526 27.519 14.9405C27.6069 15.0284 27.6563 15.1477 27.6563 15.272C27.6563 15.3963 27.6069 15.5155 27.519 15.6034C27.4311 15.6913 27.3118 15.7407 27.1875 15.7407ZM27.1875 6.36572H23.122C22.9977 6.36572 22.8785 6.31634 22.7906 6.22843C22.7027 6.14052 22.6533 6.02129 22.6533 5.89697C22.6533 5.77265 22.7027 5.65342 22.7906 5.56552C22.8785 5.47761 22.9977 5.42822 23.122 5.42822H27.1875C27.3118 5.42822 27.4311 5.47761 27.519 5.56552C27.6069 5.65342 27.6563 5.77265 27.6563 5.89697C27.6563 6.02129 27.6069 6.14052 27.519 6.22843C27.4311 6.31634 27.3118 6.36572 27.1875 6.36572ZM27.1875 25.1157H23.122C22.9977 25.1157 22.8785 25.0663 22.7906 24.9784C22.7027 24.8905 22.6533 24.7713 22.6533 24.647C22.6533 24.5227 22.7027 24.4034 22.7906 24.3155C22.8785 24.2276 22.9977 24.1782 23.122 24.1782H27.1875C27.3118 24.1782 27.4311 24.2276 27.519 24.3155C27.6069 24.4034 27.6563 24.5227 27.6563 24.647C27.6563 24.7713 27.6069 24.8905 27.519 24.9784C27.4311 25.0663 27.3118 25.1157 27.1875 25.1157ZM13.5698 17.3785C13.4857 17.3783 13.4031 17.3555 13.3308 17.3125C13.2585 17.2694 13.1991 17.2077 13.1588 17.1338C13.1186 17.0599 13.0989 16.9765 13.102 16.8924C13.105 16.8083 13.1306 16.7265 13.1761 16.6557L16.6463 11.2745C16.7154 11.1741 16.821 11.1045 16.9406 11.0806C17.0601 11.0567 17.1843 11.0803 17.2868 11.1463C17.3893 11.2124 17.462 11.3157 17.4897 11.4345C17.5173 11.5533 17.4975 11.6781 17.4347 11.7826L13.9641 17.1638C13.9216 17.2298 13.8633 17.284 13.7944 17.3216C13.7255 17.3591 13.6483 17.3787 13.5698 17.3785ZM18.3239 5.75494C18.2275 5.755 18.1334 5.72526 18.0545 5.6698C17.9757 5.61434 17.9158 5.53586 17.8833 5.4451C17.6062 4.68102 17.1612 3.98886 16.5811 3.41963C16.4941 3.33232 16.445 3.21426 16.4444 3.09101C16.4438 2.96776 16.4918 2.84924 16.578 2.76111C16.6641 2.67298 16.7815 2.62233 16.9048 2.62012C17.028 2.61791 17.1471 2.66433 17.2364 2.74932C17.9176 3.41751 18.44 4.23016 18.765 5.12729C18.7907 5.19807 18.799 5.27401 18.7891 5.34867C18.7792 5.42333 18.7514 5.49449 18.7081 5.55611C18.6648 5.61773 18.6072 5.66799 18.5404 5.7026C18.4735 5.73722 18.3992 5.75517 18.3239 5.75494ZM15.503 27.8809C15.3806 27.8809 15.2583 27.8753 15.1336 27.864C13.4995 27.7149 12.2002 26.6148 11.8242 25.0618C11.4619 23.5656 12.0684 22.0206 13.3692 21.1257C14.67 20.2309 16.3298 20.2173 17.5973 21.091C17.648 21.126 17.6914 21.1705 17.7248 21.2222C17.7583 21.2739 17.7812 21.3317 17.7924 21.3922C17.8035 21.4527 17.8026 21.5149 17.7898 21.5751C17.7769 21.6353 17.7523 21.6924 17.7173 21.7431C17.6824 21.7938 17.6378 21.8371 17.5862 21.8705C17.5345 21.904 17.4767 21.927 17.4162 21.9381C17.3556 21.9492 17.2935 21.9484 17.2333 21.9355C17.1731 21.9226 17.116 21.898 17.0653 21.8631C15.9187 21.0718 14.6784 21.3634 13.9003 21.8987C13.1222 22.434 12.4073 23.4882 12.7355 24.8415C13.0758 26.2454 14.2416 26.8412 15.2189 26.9303C16.1986 27.0212 17.4478 26.6453 18.0361 25.3271C18.0611 25.2709 18.097 25.2202 18.1417 25.1779C18.1863 25.1355 18.2389 25.1024 18.2963 25.0804C18.3538 25.0584 18.415 25.0479 18.4765 25.0495C18.5381 25.0511 18.5986 25.0649 18.6548 25.0899C18.711 25.115 18.7618 25.1509 18.8041 25.1955C18.8464 25.2402 18.8796 25.2927 18.9016 25.3502C18.9236 25.4076 18.9341 25.4689 18.9325 25.5304C18.9308 25.5919 18.9171 25.6525 18.892 25.7087C18.2911 27.0563 16.9856 27.8809 15.503 27.8809Z" fill="#18191B"/>
<path d="M24.997 27.9282C23.5798 27.9269 22.2073 27.4322 21.115 26.5291C20.0228 25.626 19.2791 24.3708 19.0116 22.9791C19 22.9186 19.0005 22.8565 19.013 22.7962C19.0255 22.7359 19.0497 22.6786 19.0843 22.6277C19.1542 22.5249 19.2621 22.454 19.3842 22.4307C19.5064 22.4074 19.6328 22.4335 19.7356 22.5034C19.8385 22.5733 19.9093 22.6812 19.9327 22.8033C20.1592 23.9808 20.7885 25.0427 21.7126 25.8068C22.6367 26.5708 23.798 26.9894 24.997 26.9907C25.1214 26.9907 25.2406 27.0401 25.3285 27.128C25.4164 27.2159 25.4658 27.3351 25.4658 27.4594C25.4658 27.5837 25.4164 27.703 25.3285 27.7909C25.2406 27.8788 25.1214 27.9282 24.997 27.9282Z" fill="#18191B"/>
<path d="M27.1875 27.9285H24.997C24.8727 27.9285 24.7535 27.8791 24.6656 27.7912C24.5777 27.7033 24.5283 27.584 24.5283 27.4597C24.5283 27.3354 24.5777 27.2162 24.6656 27.1283C24.7535 27.0404 24.8727 26.991 24.997 26.991H27.1875C27.3118 26.991 27.431 27.0404 27.519 27.1283C27.6069 27.2162 27.6562 27.3354 27.6562 27.4597C27.6562 27.584 27.6069 27.7033 27.519 27.7912C27.431 27.8791 27.3118 27.9285 27.1875 27.9285ZM19.4719 23.3605C19.3628 23.3604 19.2573 23.3223 19.1733 23.2528C19.0894 23.1832 19.0323 23.0865 19.012 22.9794C18.0337 17.8877 18.0337 12.6563 19.012 7.56456C19.0353 7.44242 19.1062 7.33454 19.2091 7.26465C19.3119 7.19476 19.4383 7.1686 19.5605 7.19191C19.6826 7.21522 19.7905 7.28609 19.8604 7.38895C19.9303 7.4918 19.9564 7.6182 19.9331 7.74034C18.9769 12.7159 18.9769 17.8281 19.9331 22.8036C19.9461 22.8715 19.9439 22.9414 19.9268 23.0083C19.9096 23.0752 19.8778 23.1375 19.8337 23.1908C19.7897 23.244 19.7344 23.2868 19.6718 23.3161C19.6092 23.3455 19.541 23.3606 19.4719 23.3605Z" fill="#18191B"/>
<path d="M19.4728 8.12119C19.4038 8.12125 19.3355 8.10605 19.273 8.07667C19.2105 8.0473 19.1553 8.00448 19.1113 7.95127C19.0673 7.89806 19.0355 7.83579 19.0184 7.7689C19.0012 7.702 18.9991 7.63214 19.012 7.56432C19.2796 6.17271 20.0233 4.91765 21.1154 4.01465C22.2075 3.11164 23.5799 2.61702 24.997 2.61572C25.1214 2.61572 25.2406 2.66511 25.3285 2.75302C25.4164 2.84092 25.4658 2.96015 25.4658 3.08447C25.4658 3.20879 25.4164 3.32802 25.3285 3.41593C25.2406 3.50384 25.1214 3.55322 24.997 3.55322C22.5267 3.55322 20.3972 5.31432 19.9327 7.74057C19.9123 7.8476 19.8552 7.94417 19.7712 8.01365C19.6873 8.08312 19.5818 8.12115 19.4728 8.12119Z" fill="#18191B"/>
<path d="M27.1875 3.55322H24.997C24.8727 3.55322 24.7535 3.50384 24.6656 3.41593C24.5777 3.32802 24.5283 3.20879 24.5283 3.08447C24.5283 2.96015 24.5777 2.84092 24.6656 2.75302C24.7535 2.66511 24.8727 2.61572 24.997 2.61572H27.1875C27.3118 2.61572 27.431 2.66511 27.519 2.75302C27.6069 2.84092 27.6562 2.96015 27.6562 3.08447C27.6562 3.20879 27.6069 3.32802 27.519 3.41593C27.431 3.50384 27.3118 3.55322 27.1875 3.55322ZM6.61266 19.517C6.52843 19.5169 6.44577 19.4942 6.37337 19.4512C6.30096 19.4082 6.24149 19.3464 6.2012 19.2725C6.16091 19.1985 6.14129 19.115 6.1444 19.0309C6.14752 18.9467 6.17326 18.8649 6.21891 18.7942L7.59797 16.6557C7.66779 16.5569 7.7731 16.4889 7.89189 16.4658C8.01069 16.4428 8.13378 16.4666 8.23548 16.5321C8.33717 16.5977 8.4096 16.7001 8.43763 16.8178C8.46567 16.9355 8.44715 17.0595 8.38594 17.1638L7.00734 19.3023C6.96486 19.3683 6.90644 19.4226 6.83746 19.4601C6.76848 19.4976 6.69118 19.5172 6.61266 19.517ZM10.7808 13.0543C10.6966 13.0542 10.614 13.0314 10.5417 12.9884C10.4693 12.9453 10.4099 12.8835 10.3697 12.8096C10.3294 12.7357 10.3099 12.6522 10.313 12.5681C10.3161 12.484 10.3419 12.4023 10.3875 12.3315L16.5141 2.83041C16.5833 2.73001 16.6888 2.66048 16.8084 2.63656C16.9279 2.61263 17.0521 2.63619 17.1546 2.70225C17.2571 2.7683 17.3299 2.87166 17.3575 2.99043C17.3851 3.1092 17.3654 3.23405 17.3025 3.33854L11.175 12.8396C11.1325 12.9056 11.0742 12.9598 11.0053 12.9973C10.9364 13.0348 10.8592 13.0544 10.7808 13.0543ZM6.09375 27.9282C4.06125 27.9282 2.34375 26.2112 2.34375 24.1782C2.34375 22.1453 4.06125 20.4282 6.09375 20.4282C8.12625 20.4282 9.84375 22.1453 9.84375 24.1782C9.84375 26.2112 8.12625 27.9282 6.09375 27.9282ZM6.09375 21.3657C4.56938 21.3657 3.28125 22.6538 3.28125 24.1782C3.28125 25.7026 4.56938 26.9907 6.09375 26.9907C7.61812 26.9907 8.90625 25.7026 8.90625 24.1782C8.90625 22.6538 7.61812 21.3657 6.09375 21.3657Z" fill="#18191B"/>
<path d="M11.01 22.0576C10.9316 22.0577 10.8544 22.0381 10.7855 22.0006C10.7166 21.9631 10.6583 21.9089 10.6158 21.843L3.43218 10.7041C3.3648 10.5995 3.34171 10.4725 3.368 10.3509C3.39428 10.2293 3.46779 10.1232 3.57234 10.0558C3.67689 9.98839 3.80393 9.9653 3.92551 9.99159C4.04708 10.0179 4.15324 10.0914 4.22062 10.1959L11.4037 21.3348C11.4494 21.4056 11.4751 21.4874 11.4782 21.5716C11.4814 21.6557 11.4617 21.7392 11.4215 21.8131C11.3812 21.8871 11.3217 21.9488 11.2493 21.9919C11.1769 22.0349 11.0942 22.0576 11.01 22.0576ZM14.9498 19.517C14.8713 19.5171 14.7941 19.4976 14.7251 19.46C14.6561 19.4225 14.5977 19.3683 14.5552 19.3023L4.26047 3.33858C4.2271 3.28684 4.20426 3.22904 4.19323 3.16847C4.18221 3.1079 4.18322 3.04576 4.19621 2.98558C4.2092 2.9254 4.23392 2.86838 4.26896 2.81775C4.30399 2.76713 4.34865 2.7239 4.40039 2.69054C4.45213 2.65717 4.50993 2.63433 4.5705 2.6233C4.63107 2.61228 4.69321 2.61329 4.75339 2.62628C4.81357 2.63928 4.87059 2.66399 4.92122 2.69903C4.97184 2.73406 5.01507 2.77872 5.04843 2.83046L15.3436 18.7942C15.3892 18.865 15.415 18.9468 15.4181 19.0309C15.4212 19.1151 15.4016 19.1985 15.3613 19.2725C15.321 19.3465 15.2615 19.4082 15.1891 19.4512C15.1167 19.4943 15.0341 19.517 14.9498 19.517Z" fill="#18191B"/>
<path d="M3.82687 10.9188C3.74837 10.9189 3.67109 10.8993 3.60213 10.8618C3.53317 10.8243 3.47473 10.77 3.43218 10.7041C1.80937 8.18783 2.18531 4.84236 4.32656 2.74939C4.41582 2.6644 4.53496 2.61799 4.65819 2.62019C4.78142 2.6224 4.89882 2.67305 4.98498 2.76118C5.07114 2.84931 5.11912 2.96783 5.11854 3.09108C5.11796 3.21433 5.06886 3.33239 4.98187 3.4197C3.15797 5.20283 2.83781 8.05236 4.22015 10.196C4.26578 10.2667 4.29151 10.3484 4.29465 10.4326C4.29779 10.5167 4.27821 10.6001 4.23797 10.674C4.19774 10.748 4.13833 10.8097 4.06599 10.8528C3.99366 10.8959 3.91106 10.9186 3.82687 10.9188Z" fill="#18191B"/>
</svg>
