<svg width="30" height="31" viewBox="0 0 30 31" fill="none" xmlns="http://www.w3.org/2000/svg">
<path d="M14.707 17.6567C14.707 17.7344 14.7379 17.809 14.7928 17.8639C14.8478 17.9188 14.9223 17.9497 15 17.9497C15.0777 17.9497 15.1522 17.9188 15.2072 17.8639C15.2621 17.809 15.293 17.7344 15.293 17.6567C15.293 17.579 15.2621 17.5045 15.2072 17.4496C15.1522 17.3946 15.0777 17.3638 15 17.3638C14.9223 17.3638 14.8478 17.3946 14.7928 17.4496C14.7379 17.5045 14.707 17.579 14.707 17.6567Z" fill="#E73B37"/>
<path d="M17.9238 19.0601H11.9092L3.16406 12.4155V13.0044L11.748 19.5288H18.0762L26.8359 12.9868V12.4009L17.9238 19.0601Z" fill="#E73B37"/>
<path d="M20.625 8.50439V5.73584H9.375V8.50439H1.875V26.229H28.125V8.50439H20.625ZM10.6641 7.0249H19.3359V8.50147H10.6641V7.0249ZM26.8359 24.9399H3.16406V23.5103H26.8359V24.9399ZM26.8359 23.0386H3.16406V9.79346H26.8359V23.0386Z" fill="#18191B"/>
</svg>
