<svg width="30" height="31" viewBox="0 0 30 31" fill="none" xmlns="http://www.w3.org/2000/svg">
<g clip-path="url(#clip0_710_8615)">
<path d="M11.5624 10.8546H2.18742C0.981211 10.8546 0 9.87336 0 8.66691V3.04191C0 1.8357 0.981211 0.854492 2.18742 0.854492H11.5624C12.7689 0.854492 13.7501 1.8357 13.7501 3.04191V8.66691C13.7501 9.87336 12.7689 10.8546 11.5624 10.8546ZM2.18742 2.72949C2.10458 2.72955 2.02515 2.76249 1.96657 2.82107C1.908 2.87964 1.87506 2.95907 1.875 3.04191V8.66691C1.87502 8.74979 1.90793 8.82927 1.96651 8.88789C2.02509 8.94652 2.10455 8.97949 2.18742 8.97957H11.5624C11.6453 8.97954 11.7248 8.94659 11.7835 8.88796C11.8421 8.82933 11.875 8.74983 11.8751 8.66691V3.04191C11.875 2.95904 11.842 2.87958 11.7834 2.821C11.7248 2.76242 11.6453 2.72951 11.5624 2.72949H2.18742ZM11.5624 30.8545H2.18742C0.981211 30.8545 0 29.8733 0 28.6671V15.5421C0 14.3356 0.981211 13.3544 2.18742 13.3544H11.5624C12.7689 13.3544 13.7501 14.3356 13.7501 15.5421V28.6671C13.7501 29.8733 12.7689 30.8545 11.5624 30.8545ZM2.18742 15.2294C2.10455 15.2295 2.02509 15.2625 1.96651 15.3211C1.90793 15.3797 1.87502 15.4592 1.875 15.5421V28.6671C1.87506 28.7499 1.908 28.8293 1.96657 28.8879C2.02515 28.9465 2.10458 28.9794 2.18742 28.9795H11.5624C11.6453 28.9795 11.7248 28.9466 11.7834 28.888C11.842 28.8294 11.875 28.7499 11.8751 28.6671V15.5421C11.875 15.4592 11.8421 15.3797 11.7835 15.321C11.7248 15.2624 11.6453 15.2294 11.5624 15.2294H2.18742ZM27.8126 30.8545H18.4376C17.2311 30.8545 16.2499 29.8733 16.2499 28.6671V23.0421C16.2499 21.8356 17.2311 20.8544 18.4376 20.8544H27.8126C29.0188 20.8544 30 21.8356 30 23.0421V28.6671C30 29.8733 29.0188 30.8545 27.8126 30.8545ZM18.4376 22.7294C18.3547 22.7294 18.2752 22.7624 18.2165 22.821C18.1579 22.8797 18.125 22.9592 18.1249 23.0421V28.6671C18.125 28.7499 18.158 28.8294 18.2166 28.888C18.2752 28.9466 18.3547 28.9795 18.4376 28.9795H27.8126C27.8954 28.9794 27.9748 28.9465 28.0334 28.8879C28.092 28.8293 28.1249 28.7499 28.125 28.6671V23.0421C28.125 22.9592 28.0921 22.8797 28.0335 22.8211C27.9749 22.7625 27.8955 22.7295 27.8126 22.7294H18.4376ZM27.8126 18.3546H18.4376C17.2311 18.3546 16.2499 17.3734 16.2499 16.1669V3.04191C16.2499 1.8357 17.2311 0.854492 18.4376 0.854492H27.8126C29.0188 0.854492 30 1.8357 30 3.04191V16.1669C30 17.3734 29.0188 18.3546 27.8126 18.3546ZM18.4376 2.72949C18.3547 2.72951 18.2752 2.76242 18.2166 2.821C18.158 2.87958 18.125 2.95904 18.1249 3.04191V16.1669C18.125 16.2498 18.1579 16.3293 18.2165 16.388C18.2752 16.4466 18.3547 16.4795 18.4376 16.4796H27.8126C27.8955 16.4795 27.9749 16.4465 28.0335 16.3879C28.0921 16.3293 28.125 16.2498 28.125 16.1669V3.04191C28.1249 2.95907 28.092 2.87964 28.0334 2.82107C27.9748 2.76249 27.8954 2.72955 27.8126 2.72949H18.4376Z" fill="#18191B"/>
</g>
<defs>
<clipPath id="clip0_710_8615">
<rect width="30" height="30" fill="white" transform="translate(0 0.854492)"/>
</clipPath>
</defs>
</svg>
