<svg width="30" height="31" viewBox="0 0 30 31" fill="none" xmlns="http://www.w3.org/2000/svg">
<g clip-path="url(#clip0_710_8650)">
<path d="M13.5938 23.0122C14.5208 23.0122 15.4271 22.7373 16.198 22.2222C16.9688 21.7072 17.5696 20.9751 17.9244 20.1185C18.2792 19.262 18.372 18.3195 18.1912 17.4102C18.0103 16.5009 17.5639 15.6657 16.9083 15.0101C16.2528 14.3546 15.4175 13.9081 14.5082 13.7273C13.5989 13.5464 12.6565 13.6392 11.7999 13.994C10.9434 14.3488 10.2113 14.9496 9.69624 15.7205C9.18117 16.4913 8.90625 17.3976 8.90625 18.3247C8.90761 19.5675 9.40191 20.759 10.2807 21.6378C11.1595 22.5165 12.351 23.0108 13.5938 23.0122ZM13.5938 14.5747C14.3354 14.5747 15.0605 14.7946 15.6771 15.2067C16.2938 15.6188 16.7745 16.2044 17.0583 16.8896C17.3421 17.5749 17.4164 18.3289 17.2717 19.0563C17.127 19.7837 16.7698 20.4519 16.2454 20.9764C15.721 21.5008 15.0528 21.858 14.3253 22.0027C13.5979 22.1473 12.8439 22.0731 12.1587 21.7893C11.4735 21.5054 10.8878 21.0248 10.4757 20.4081C10.0637 19.7914 9.84375 19.0664 9.84375 18.3247C9.84499 17.3305 10.2405 16.3774 10.9435 15.6744C11.6465 14.9714 12.5996 14.576 13.5938 14.5747Z" fill="#18191B"/>
<path d="M12.2217 20.7793C12.6392 21.0155 13.1108 21.1397 13.5905 21.1397C14.1765 21.1324 14.7489 20.9627 15.2442 20.6494C15.2981 20.618 15.3452 20.5761 15.3827 20.5263C15.4201 20.4764 15.4473 20.4196 15.4626 20.3591C15.4778 20.2987 15.4808 20.2357 15.4715 20.1741C15.4621 20.1124 15.4405 20.0532 15.408 20C15.3754 19.9468 15.3326 19.9006 15.282 19.8642C15.2314 19.8277 15.174 19.8017 15.1132 19.7877C15.0524 19.7737 14.9895 19.772 14.928 19.7827C14.8666 19.7933 14.8078 19.8161 14.7553 19.8497C14.4524 20.0554 14.0991 20.1745 13.7335 20.1941C13.3679 20.2138 13.0038 20.1333 12.6806 19.9613C12.4701 19.8429 12.2844 19.685 12.1336 19.4963H13.5937C13.7181 19.4963 13.8373 19.4469 13.9252 19.359C14.0131 19.2711 14.0625 19.1519 14.0625 19.0276C14.0625 18.9032 14.0131 18.784 13.9252 18.6961C13.8373 18.6082 13.7181 18.5588 13.5937 18.5588H11.7347C11.7136 18.4033 11.7136 18.2456 11.7347 18.0901H13.5937C13.7181 18.0901 13.8373 18.0407 13.9252 17.9528C14.0131 17.8649 14.0625 17.7456 14.0625 17.6213C14.0625 17.497 14.0131 17.3778 13.9252 17.2899C13.8373 17.2019 13.7181 17.1526 13.5937 17.1526H12.1336C12.2844 16.9639 12.4701 16.806 12.6806 16.6876C13.0039 16.5155 13.368 16.4349 13.7337 16.4546C14.0994 16.4742 14.4528 16.5934 14.7558 16.7991C14.8083 16.8327 14.867 16.8556 14.9285 16.8662C14.9899 16.8769 15.0529 16.8751 15.1137 16.8611C15.1745 16.8471 15.2319 16.8212 15.2825 16.7847C15.3331 16.7483 15.3759 16.7021 15.4084 16.6488C15.441 16.5956 15.4626 16.5365 15.4719 16.4748C15.4813 16.4131 15.4783 16.3502 15.463 16.2897C15.4478 16.2292 15.4206 16.1724 15.3831 16.1226C15.3456 16.0727 15.2986 16.0309 15.2447 15.9994C14.8006 15.7041 14.2842 15.5358 13.7513 15.5129C13.2185 15.4901 12.6895 15.6134 12.2217 15.8696C11.7031 16.162 11.2904 16.6111 11.0428 17.1526H10.7812C10.6569 17.1526 10.5377 17.2019 10.4498 17.2899C10.3619 17.3778 10.3125 17.497 10.3125 17.6213C10.3125 17.7456 10.3619 17.8649 10.4498 17.9528C10.5377 18.0407 10.6569 18.0901 10.7812 18.0901H10.7972C10.7906 18.1679 10.7812 18.2452 10.7812 18.3244C10.7812 18.4037 10.7906 18.481 10.7972 18.5588H10.7812C10.6569 18.5588 10.5377 18.6082 10.4498 18.6961C10.3619 18.784 10.3125 18.9032 10.3125 19.0276C10.3125 19.1519 10.3619 19.2711 10.4498 19.359C10.5377 19.4469 10.6569 19.4963 10.7812 19.4963H11.0428C11.2904 20.0377 11.7031 20.4869 12.2217 20.7793Z" fill="#18191B"/>
<path d="M28.5938 17.3871H27.1875V14.943C27.9855 14.5354 28.6633 13.9268 29.1543 13.1772C29.6452 12.4276 29.9322 11.563 29.987 10.6687C30.0418 9.77432 29.8624 8.88114 29.4666 8.07727C29.0708 7.27339 28.4723 6.5866 27.73 6.08467C26.9878 5.58273 26.1275 5.283 25.2341 5.21504C24.3406 5.14708 23.4449 5.31325 22.6353 5.69715C21.8256 6.08104 21.1301 6.6694 20.6173 7.40416C20.1044 8.13893 19.7921 8.99471 19.7109 9.88706H0.46875C0.34443 9.88706 0.225201 9.93644 0.137294 10.0243C0.049386 10.1123 0 10.2315 0 10.3558L0 26.2933C0 26.4176 0.049386 26.5369 0.137294 26.6248C0.225201 26.7127 0.34443 26.7621 0.46875 26.7621H28.5938C28.9666 26.7617 29.3241 26.6134 29.5877 26.3498C29.8513 26.0861 29.9996 25.7287 30 25.3558V24.4183C29.999 24.0712 29.8686 23.737 29.6344 23.4808C29.8686 23.2247 29.999 22.8904 30 22.5433V21.6058C29.999 21.2587 29.8686 20.9245 29.6344 20.6683C29.8686 20.4122 29.999 20.0779 30 19.7308V18.7933C29.9996 18.4205 29.8513 18.063 29.5877 17.7993C29.3241 17.5357 28.9666 17.3874 28.5938 17.3871ZM29.0625 18.7933V19.7308C29.0624 19.8551 29.0129 19.9742 28.9251 20.0621C28.8372 20.15 28.718 20.1994 28.5938 20.1996H21.0938C20.9695 20.1994 20.8503 20.15 20.7624 20.0621C20.6746 19.9742 20.6251 19.8551 20.625 19.7308V18.7933C20.6251 18.669 20.6746 18.5499 20.7624 18.462C20.8503 18.3741 20.9695 18.3247 21.0938 18.3246H21.5625V18.7933C21.5625 18.9176 21.6119 19.0369 21.6998 19.1248C21.7877 19.2127 21.9069 19.2621 22.0312 19.2621C22.1556 19.2621 22.2748 19.2127 22.3627 19.1248C22.4506 19.0369 22.5 18.9176 22.5 18.7933V18.3246H24.375V18.7933C24.375 18.9176 24.4244 19.0369 24.5123 19.1248C24.6002 19.2127 24.7194 19.2621 24.8438 19.2621C24.9681 19.2621 25.0873 19.2127 25.1752 19.1248C25.2631 19.0369 25.3125 18.9176 25.3125 18.7933V18.3246H27.1875V18.7933C27.1875 18.9176 27.2369 19.0369 27.3248 19.1248C27.4127 19.2127 27.5319 19.2621 27.6562 19.2621C27.7806 19.2621 27.8998 19.2127 27.9877 19.1248C28.0756 19.0369 28.125 18.9176 28.125 18.7933V18.3246H28.5938C28.718 18.3247 28.8372 18.3741 28.9251 18.462C29.0129 18.5499 29.0624 18.669 29.0625 18.7933ZM29.0625 21.6058V22.5433C29.0624 22.6676 29.0129 22.7867 28.9251 22.8746C28.8372 22.9625 28.718 23.0119 28.5938 23.0121H21.0938C20.9695 23.0119 20.8503 22.9625 20.7624 22.8746C20.6746 22.7867 20.6251 22.6676 20.625 22.5433V21.6058C20.6251 21.4815 20.6746 21.3624 20.7624 21.2745C20.8503 21.1866 20.9695 21.1372 21.0938 21.1371H21.5625V21.6058C21.5625 21.7301 21.6119 21.8494 21.6998 21.9373C21.7877 22.0252 21.9069 22.0746 22.0312 22.0746C22.1556 22.0746 22.2748 22.0252 22.3627 21.9373C22.4506 21.8494 22.5 21.7301 22.5 21.6058V21.1371H24.375V21.6058C24.375 21.7301 24.4244 21.8494 24.5123 21.9373C24.6002 22.0252 24.7194 22.0746 24.8438 22.0746C24.9681 22.0746 25.0873 22.0252 25.1752 21.9373C25.2631 21.8494 25.3125 21.7301 25.3125 21.6058V21.1371H27.1875V21.6058C27.1875 21.7301 27.2369 21.8494 27.3248 21.9373C27.4127 22.0252 27.5319 22.0746 27.6562 22.0746C27.7806 22.0746 27.8998 22.0252 27.9877 21.9373C28.0756 21.8494 28.125 21.7301 28.125 21.6058V21.1371H28.5938C28.718 21.1372 28.8372 21.1866 28.9251 21.2745C29.0129 21.3624 29.0624 21.4815 29.0625 21.6058ZM24.375 15.4886V17.3871H21.0938C20.7209 17.3874 20.3634 17.5357 20.0998 17.7993C19.8362 18.063 19.6879 18.4205 19.6875 18.7933V19.7308C19.6885 20.0779 19.8189 20.4122 20.0531 20.6683C19.8189 20.9245 19.6885 21.2587 19.6875 21.6058V22.5433C19.6885 22.8904 19.8189 23.2247 20.0531 23.4808C19.9301 23.6172 19.8352 23.7765 19.7737 23.9496H5.59219C5.48987 23.2488 5.16407 22.5997 4.66324 22.099C4.16241 21.5982 3.51331 21.2725 2.8125 21.1703V15.4792C3.51329 15.3769 4.16234 15.0511 4.66308 14.5503C5.16383 14.0495 5.48952 13.4004 5.59172 12.6996H20.2566C20.6525 13.4738 21.2376 14.1354 21.9576 14.623C22.6776 15.1106 23.5091 15.4083 24.375 15.4886ZM26.25 17.3871H25.3125V15.4886C25.6298 15.4592 25.9437 15.4002 26.25 15.3124V17.3871ZM24.8438 6.13706C25.6781 6.13706 26.4938 6.38448 27.1876 6.84804C27.8813 7.31161 28.4221 7.97048 28.7414 8.74136C29.0607 9.51224 29.1442 10.3605 28.9814 11.1788C28.8187 11.9972 28.4169 12.7489 27.8269 13.3389C27.2369 13.9289 26.4851 14.3307 25.6668 14.4935C24.8484 14.6563 24.0002 14.5727 23.2293 14.2534C22.4584 13.9341 21.7995 13.3934 21.336 12.6996C20.8724 12.0058 20.625 11.1902 20.625 10.3558C20.6262 9.23731 21.0711 8.16497 21.862 7.37407C22.6529 6.58317 23.7252 6.1383 24.8438 6.13706ZM0.9375 10.8246H19.7109C19.7403 11.1419 19.7993 11.4557 19.8872 11.7621H5.15625C5.03193 11.7621 4.9127 11.8114 4.82479 11.8993C4.73689 11.9873 4.6875 12.1065 4.6875 12.2308C4.68676 12.8522 4.43959 13.4479 4.00021 13.8873C3.56083 14.3266 2.96512 14.5738 2.34375 14.5746C2.21943 14.5746 2.1002 14.6239 2.01229 14.7119C1.92439 14.7998 1.875 14.919 1.875 15.0433V21.6058C1.875 21.7301 1.92439 21.8494 2.01229 21.9373C2.1002 22.0252 2.21943 22.0746 2.34375 22.0746C2.96512 22.0753 3.56083 22.3225 4.00021 22.7618C4.43959 23.2012 4.68676 23.7969 4.6875 24.4183C4.6875 24.5426 4.73689 24.6619 4.82479 24.7498C4.9127 24.8377 5.03193 24.8871 5.15625 24.8871H19.6875V25.3558C19.689 25.5159 19.7182 25.6744 19.7737 25.8246H0.9375V10.8246ZM29.0625 25.3558C29.0624 25.4801 29.0129 25.5992 28.9251 25.6871C28.8372 25.775 28.718 25.8244 28.5938 25.8246H21.0938C20.9695 25.8244 20.8503 25.775 20.7624 25.6871C20.6746 25.5992 20.6251 25.4801 20.625 25.3558V24.4183C20.6251 24.294 20.6746 24.1749 20.7624 24.087C20.8503 23.9991 20.9695 23.9497 21.0938 23.9496H21.5625V24.4183C21.5625 24.5426 21.6119 24.6619 21.6998 24.7498C21.7877 24.8377 21.9069 24.8871 22.0312 24.8871C22.1556 24.8871 22.2748 24.8377 22.3627 24.7498C22.4506 24.6619 22.5 24.5426 22.5 24.4183V23.9496H24.375V24.4183C24.375 24.5426 24.4244 24.6619 24.5123 24.7498C24.6002 24.8377 24.7194 24.8871 24.8438 24.8871C24.9681 24.8871 25.0873 24.8377 25.1752 24.7498C25.2631 24.6619 25.3125 24.5426 25.3125 24.4183V23.9496H27.1875V24.4183C27.1875 24.5426 27.2369 24.6619 27.3248 24.7498C27.4127 24.8377 27.5319 24.8871 27.6562 24.8871C27.7806 24.8871 27.8998 24.8377 27.9877 24.7498C28.0756 24.6619 28.125 24.5426 28.125 24.4183V23.9496H28.5938C28.718 23.9497 28.8372 23.9991 28.9251 24.087C29.0129 24.1749 29.0624 24.294 29.0625 24.4183V25.3558Z" fill="#18191B"/>
<path d="M22.5 10.3559H22.9687V13.1684C22.9687 13.2927 23.0181 13.4119 23.106 13.4998C23.194 13.5877 23.3132 13.6371 23.4375 13.6371H26.25C26.3743 13.6371 26.4935 13.5877 26.5815 13.4998C26.6694 13.4119 26.7187 13.2927 26.7187 13.1684V10.3559H27.1875C27.2802 10.3558 27.3708 10.3283 27.4479 10.2768C27.5249 10.2253 27.585 10.1521 27.6205 10.0665C27.6559 9.98084 27.6652 9.8866 27.6471 9.79569C27.6291 9.70477 27.5844 9.62126 27.5189 9.5557L25.1752 7.21195C25.0873 7.12407 24.968 7.07471 24.8437 7.07471C24.7195 7.07471 24.6002 7.12407 24.5123 7.21195L22.1686 9.5557C22.1031 9.62126 22.0584 9.70477 22.0404 9.79569C22.0223 9.8866 22.0316 9.98084 22.067 10.0665C22.1025 10.1521 22.1626 10.2253 22.2396 10.2768C22.3167 10.3283 22.4073 10.3558 22.5 10.3559ZM24.8437 8.20617L26.0859 9.44836C25.9965 9.48177 25.9194 9.54168 25.865 9.62009C25.8105 9.69849 25.7813 9.79165 25.7812 9.88711V12.6996H23.9062V9.88711C23.9063 9.79157 23.8771 9.69831 23.8227 9.61981C23.7682 9.54131 23.6911 9.48133 23.6016 9.44789L24.8437 8.20617Z" fill="#18191B"/>
</g>
<defs>
<clipPath id="clip0_710_8650">
<rect width="30" height="30" fill="white" transform="translate(0 0.980957)"/>
</clipPath>
</defs>
</svg>
