<svg width="30" height="31" viewBox="0 0 30 31" fill="none" xmlns="http://www.w3.org/2000/svg">
<path d="M25.944 15.7521C25.9168 15.8937 25.9468 16.0403 26.0273 16.1599C26.1078 16.2795 26.2323 16.3624 26.3737 16.3905C26.5151 16.4186 26.6619 16.3897 26.782 16.31C26.9022 16.2303 26.9859 16.1063 27.015 15.9651L28.455 8.57911C28.5115 8.30483 28.5125 8.02202 28.4581 7.74733C28.4037 7.47264 28.2948 7.21161 28.138 6.9796C27.9812 6.74759 27.7796 6.54928 27.545 6.39636C27.3104 6.24343 27.0476 6.13896 26.772 6.08911L19.605 4.67911L19.452 3.88111C19.3291 3.32161 18.9896 2.83356 18.5078 2.52377C18.026 2.21398 17.441 2.10767 16.881 2.22811L6.19201 4.31911C6.12359 4.3283 6.05804 4.3524 5.99998 4.38973C5.94191 4.42706 5.89276 4.47669 5.85601 4.53511L1.66201 10.5891C1.59561 10.6533 1.54608 10.7329 1.51782 10.8208C1.48956 10.9087 1.48344 11.0023 1.50001 11.0931L4.69201 27.2751C4.81025 27.8396 5.14784 28.334 5.63053 28.6496C6.11322 28.9652 6.7015 29.0762 7.26601 28.9581L16.299 27.2121C16.3674 27.1979 16.4323 27.1704 16.49 27.1312C16.5477 27.0919 16.5971 27.0417 16.6354 26.9833C16.6737 26.9249 16.7002 26.8596 16.7132 26.791C16.7263 26.7224 16.7257 26.652 16.7115 26.5836C16.6973 26.5153 16.6698 26.4504 16.6306 26.3926C16.5913 26.3349 16.541 26.2855 16.4827 26.2472C16.4243 26.2089 16.359 26.1825 16.2904 26.1694C16.2218 26.1563 16.1514 26.1569 16.083 26.1711L7.05001 27.9171C6.90911 27.9459 6.76391 27.9466 6.62278 27.919C6.48164 27.8914 6.34737 27.8361 6.22771 27.7563C6.10806 27.6765 6.00538 27.5739 5.92562 27.4542C5.84586 27.3345 5.79059 27.2003 5.76301 27.0591L2.67001 11.3991L5.64301 10.8171C6.20592 10.7039 6.7015 10.3733 7.02219 9.89706C7.34289 9.42079 7.46284 8.83727 7.35601 8.27311L6.77401 5.30011L17.1 3.27811C17.239 3.24643 17.3829 3.24281 17.5232 3.26745C17.6636 3.29209 17.7977 3.34451 17.9175 3.42162C18.0374 3.49874 18.1407 3.599 18.2213 3.71654C18.3019 3.83408 18.3582 3.96652 18.387 4.10611C19.215 8.30611 20.04 12.5331 20.868 16.7331C19.6165 16.9168 18.4158 17.3547 17.34 18.0201C16.176 18.9381 15.564 20.0121 15.993 21.5421C16.7107 24.0319 18 26.3196 19.758 28.2231C20.0544 28.5284 20.4091 28.7711 20.801 28.9368C21.1928 29.1025 21.614 29.1879 22.0395 29.1879C22.465 29.1879 22.8862 29.1025 23.2781 28.9368C23.67 28.7711 24.0246 28.5284 24.321 28.2231C26.1087 26.3244 27.4116 24.0222 28.119 21.5121C28.2975 20.8594 28.2598 20.1665 28.0116 19.537C27.7634 18.9075 27.3179 18.3753 26.742 18.0201C25.3098 17.1073 23.64 16.6377 21.942 16.6701L21.606 14.8701L22.206 14.9931C22.911 15.1161 23.124 14.0751 22.419 13.9521L21.348 13.7061L20.859 11.0721L23.646 11.5911C24.348 11.7141 24.501 10.6731 23.829 10.5201L20.616 9.92911L19.821 5.82211L26.556 7.13911C26.6904 7.16101 26.819 7.20982 26.934 7.28262C27.0491 7.35543 27.1482 7.45072 27.2256 7.56278C27.3029 7.67485 27.3568 7.80138 27.384 7.93478C27.4112 8.06818 27.4112 8.20571 27.384 8.33911L25.944 15.7521ZM6.96001 19.4601C6.28501 19.5831 6.49801 20.6601 7.17301 20.5011L14.184 19.0911C14.3221 19.0629 14.4432 18.9809 14.5209 18.8634C14.5985 18.7458 14.6263 18.6022 14.598 18.4641C14.5698 18.3261 14.4878 18.2049 14.3702 18.1273C14.2527 18.0496 14.1091 18.0219 13.971 18.0501L6.96001 19.4601ZM17.799 14.1891L6.34501 16.5171C5.67301 16.6401 5.88601 17.6811 6.56101 17.5581L18 15.2301C18.0717 15.2205 18.1406 15.1964 18.2027 15.1592C18.2647 15.122 18.3185 15.0726 18.3607 15.0139C18.4029 14.9552 18.4327 14.8884 18.4482 14.8178C18.4638 14.7472 18.4647 14.6741 18.451 14.6031C18.4373 14.5321 18.4092 14.4647 18.3685 14.4049C18.3278 14.3451 18.2753 14.2943 18.2143 14.2555C18.1532 14.2168 18.0849 14.1909 18.0135 14.1795C17.9421 14.168 17.8691 14.1713 17.799 14.1891ZM17.199 11.2161L5.76301 13.5441C5.09101 13.6671 5.30401 14.7081 5.97901 14.5851L17.4 12.2571C17.4684 12.2431 17.5333 12.2158 17.5911 12.1767C17.6489 12.1377 17.6984 12.0876 17.7369 12.0294C17.7753 11.9711 17.8019 11.9059 17.8151 11.8374C17.8284 11.7689 17.828 11.6985 17.814 11.6301C17.8 11.5618 17.7727 11.4968 17.7336 11.439C17.6946 11.3812 17.6445 11.3317 17.5862 11.2933C17.528 11.2548 17.4628 11.2282 17.3943 11.215C17.3258 11.2017 17.2554 11.2021 17.187 11.2161H17.199ZM20.781 24.0561C20.8766 24.1543 20.9909 24.2323 21.1171 24.2855C21.2434 24.3388 21.379 24.3663 21.516 24.3663C21.653 24.3663 21.7886 24.3388 21.9149 24.2855C22.0411 24.2323 22.1554 24.1543 22.251 24.0561L24.81 21.4191C25.302 20.9301 24.537 20.1651 24.045 20.6541L21.534 23.2911L20.334 22.0911C19.845 21.6021 19.08 22.3671 19.569 22.8591L20.781 24.0561ZM5.42701 9.77611L3.25201 10.1721L5.88601 6.38911L6.31501 8.48911C6.36163 8.77853 6.29376 9.07473 6.12576 9.31496C5.95777 9.55519 5.70285 9.72059 5.41501 9.77611H5.42701ZM26.16 18.9081C26.5498 19.1391 26.8517 19.4933 27.0179 19.9148C27.1841 20.3363 27.2053 20.8012 27.078 21.2361C26.4193 23.5711 25.2117 25.7148 23.556 27.4881C23.1482 27.8796 22.6048 28.0981 22.0395 28.0981C21.4742 28.0981 20.9308 27.8796 20.523 27.4881C18.8782 25.7121 17.6819 23.5685 17.034 21.2361C16.8989 20.8079 16.9145 20.3463 17.0782 19.9282C17.242 19.5101 17.544 19.1607 17.934 18.9381C19.1633 18.1532 20.5902 17.7337 22.0487 17.7284C23.5071 17.7231 24.9371 18.1322 26.172 18.9081H26.16Z" fill="black"/>
</svg>
