<svg width="24" height="24" viewBox="0 0 24 24" fill="none" xmlns="http://www.w3.org/2000/svg">
<path d="M5.9875 18V18.0125H6H18H18.0125V18V17.2C18.0125 17.0145 17.9661 16.8455 17.8732 16.6935C17.7804 16.5417 17.658 16.4235 17.5061 16.3391L17.5056 16.3388C16.6048 15.8884 15.6956 15.5506 14.778 15.3254C13.8603 15.1001 12.9343 14.9875 12 14.9875C11.0657 14.9875 10.1397 15.1001 9.22202 15.3254C8.30439 15.5506 7.39519 15.8884 6.49441 16.3388L6.4944 16.3388L6.49393 16.3391C6.342 16.4235 6.2196 16.5417 6.12683 16.6935C6.03392 16.8455 5.9875 17.0145 5.9875 17.2V18ZM12 11.9875C10.9033 11.9875 9.96485 11.5972 9.18384 10.8162C8.40283 10.0352 8.0125 9.09666 8.0125 8C8.0125 6.90334 8.40283 5.96485 9.18384 5.18384C9.96485 4.40283 10.9033 4.0125 12 4.0125C13.0967 4.0125 14.0352 4.40283 14.8162 5.18384C15.5972 5.96485 15.9875 6.90334 15.9875 8C15.9875 9.09666 15.5972 10.0352 14.8162 10.8162C14.0352 11.5972 13.0967 11.9875 12 11.9875ZM4.0125 19.9875V17.2C4.0125 16.6356 4.15771 16.117 4.44815 15.644C4.73865 15.1709 5.12445 14.8101 5.60569 14.5611C6.63819 14.0449 7.68727 13.6577 8.75294 13.3996C9.81864 13.1415 10.901 13.0125 12 13.0125C13.099 13.0125 14.1814 13.1415 15.2471 13.3996C16.3127 13.6577 17.3618 14.0449 18.3943 14.5611C18.8755 14.8101 19.2614 15.1709 19.5518 15.644C19.8423 16.117 19.9875 16.6356 19.9875 17.2V19.9875H4.0125ZM12 10.0125C12.5533 10.0125 13.0273 9.81533 13.4213 9.42134C13.8153 9.02735 14.0125 8.55334 14.0125 8C14.0125 7.44666 13.8153 6.97265 13.4213 6.57866C13.0273 6.18467 12.5533 5.9875 12 5.9875C11.4467 5.9875 10.9727 6.18467 10.5787 6.57866C10.1847 6.97265 9.9875 7.44666 9.9875 8C9.9875 8.55334 10.1847 9.02735 10.5787 9.42134C10.9727 9.81533 11.4467 10.0125 12 10.0125Z" fill="#222222" stroke="#222222" stroke-width="0.025"/>
</svg>
