<svg width="30" height="31" viewBox="0 0 30 31" fill="none" xmlns="http://www.w3.org/2000/svg">
<path fill-rule="evenodd" clip-rule="evenodd" d="M26.0083 10.2195L25.2303 8.86941C24.572 7.727 23.1134 7.3329 21.9694 7.9884V7.9884C21.4248 8.30918 20.7751 8.40019 20.1634 8.24136C19.5516 8.08253 19.0282 7.6869 18.7085 7.14172C18.5029 6.79519 18.3923 6.4005 18.3882 5.99755V5.99755C18.4067 5.35153 18.163 4.72551 17.7125 4.26209C17.262 3.79867 16.6431 3.53733 15.9969 3.5376H14.4293C13.7962 3.53759 13.1891 3.7899 12.7425 4.23868C12.2958 4.68747 12.0464 5.29574 12.0495 5.9289V5.9289C12.0307 7.23616 10.9656 8.28602 9.65818 8.28588C9.25523 8.2817 8.86054 8.17118 8.51401 7.96552V7.96552C7.37005 7.31002 5.91136 7.70412 5.25314 8.84652L4.4179 10.2195C3.76048 11.3605 4.14922 12.8183 5.28747 13.4804V13.4804C6.02735 13.9076 6.48313 14.697 6.48313 15.5513C6.48313 16.4057 6.02735 17.1951 5.28747 17.6223V17.6223C4.15067 18.2799 3.7615 19.7342 4.4179 20.8717V20.8717L5.20738 22.2333C5.51578 22.7897 6.03322 23.2004 6.64521 23.3743C7.2572 23.5482 7.91327 23.4711 8.46825 23.16V23.16C9.01382 22.8417 9.66396 22.7545 10.2741 22.9177C10.8843 23.081 11.404 23.4813 11.7177 24.0296C11.9233 24.3761 12.0339 24.7708 12.038 25.1738V25.1738C12.038 26.4944 13.1087 27.5651 14.4293 27.5651H15.9969C17.3131 27.5651 18.3819 26.5014 18.3882 25.1852V25.1852C18.3851 24.55 18.6361 23.94 19.0852 23.4909C19.5343 23.0418 20.1443 22.7908 20.7795 22.7939C21.1814 22.8046 21.5745 22.9147 21.9236 23.1143V23.1143C23.0646 23.7717 24.5224 23.3829 25.1845 22.2447V22.2447L26.0083 20.8717C26.3272 20.3244 26.4147 19.6725 26.2515 19.0605C26.0883 18.4484 25.6878 17.9267 25.1387 17.6108V17.6108C24.5897 17.295 24.1892 16.7732 24.026 16.1612C23.8628 15.5491 23.9503 14.8973 24.2692 14.35C24.4765 13.9879 24.7767 13.6877 25.1387 13.4804V13.4804C26.2702 12.8186 26.658 11.3694 26.0083 10.231V10.231V10.2195Z" stroke="#18191B" stroke-width="1.5" stroke-linecap="round" stroke-linejoin="round"/>
<circle cx="15.2188" cy="15.5515" r="3.2952" stroke="#18191B" stroke-width="1.5" stroke-linecap="round" stroke-linejoin="round"/>
</svg>
