<svg width="24" height="24" viewBox="0 0 24 24" fill="none" xmlns="http://www.w3.org/2000/svg">
<g clip-path="url(#clip0_9383_7038)">
<path fill-rule="evenodd" clip-rule="evenodd" d="M1.97297 2.36437H3.79266V4.78809C3.79266 5.46186 4.10672 6.0575 4.61344 6.47159C5.04141 6.82205 5.61094 7.03915 6.21938 7.03915C6.82828 7.03915 7.39781 6.82205 7.82625 6.47159C8.3325 6.0575 8.64656 5.46186 8.64656 4.78809V2.36437H12.3211V4.78809C12.3211 5.46186 12.6347 6.0575 13.1414 6.47159C13.5694 6.82205 14.1394 7.03915 14.7478 7.03915C15.3562 7.03915 15.9263 6.82205 16.3542 6.47159C16.8609 6.0575 17.175 5.46186 17.175 4.78809V2.36437H19.0744C19.6163 2.36437 20.1094 2.58662 20.4675 2.94363C20.8256 3.2997 21.0478 3.7924 21.0478 4.33422V11.0832C20.7725 10.9771 20.4911 10.8876 20.205 10.8151V8.06619H0.842812V19.5218C0.842812 20.3729 1.54078 21.0705 2.39438 21.0705H11.8345C11.9762 21.3612 12.1371 21.6421 12.3164 21.9113H1.97297C1.43203 21.9113 0.938906 21.69 0.580781 21.333C0.222188 20.9741 0 20.4824 0 19.9424V4.33376C0 3.79286 0.222188 3.3011 0.579375 2.94409C0.937969 2.58615 1.43156 2.36437 1.97297 2.36437ZM17.1694 22.5163C17.4211 22.5832 17.5706 22.8415 17.5036 23.0928C17.4361 23.344 17.1773 23.4933 16.9261 23.4264C16.7073 23.368 16.4922 23.2966 16.282 23.2126C15.0764 22.7311 14.1108 21.8636 13.493 20.7959C12.7683 19.5447 12.5227 18.0175 12.9263 16.5127C13.3298 15.0084 14.3077 13.8092 15.5616 13.0863C16.8145 12.3629 18.345 12.1173 19.8525 12.5211C20.3794 12.6619 20.8692 12.8725 21.3141 13.1401C21.669 13.3542 21.9991 13.6069 22.2984 13.8934L22.2727 13.644C22.2464 13.3862 22.4339 13.1555 22.6922 13.1293C22.9505 13.1031 23.1811 13.2908 23.2078 13.5486L23.3428 14.8503C23.3475 14.898 23.3452 14.9453 23.3358 14.9902C23.3161 15.2237 23.1234 15.4108 22.883 15.4183L21.5728 15.4646C21.3141 15.4726 21.097 15.269 21.0891 15.0108C21.0811 14.752 21.2845 14.5358 21.5433 14.5279L21.5958 14.526C21.3623 14.3094 21.105 14.1152 20.827 13.9472C20.4558 13.7236 20.0475 13.5481 19.6088 13.4307C18.3516 13.0947 17.077 13.2987 16.0341 13.9C14.9892 14.5007 14.175 15.5006 13.8384 16.7556C13.5014 18.0105 13.7053 19.2827 14.3081 20.3247C14.6077 20.8436 15.0061 21.3059 15.4861 21.6802C15.9637 22.0536 16.5834 22.3605 17.1694 22.5163ZM18.1711 15.0094H19.1128L19.0903 15.6017C19.4864 15.6265 19.8323 15.6658 20.1291 15.7206L19.9139 16.8674H18.8016C18.6286 16.8674 18.5133 16.8945 18.4566 16.9488C18.3998 17.0031 18.3689 17.1069 18.3638 17.2595L18.8311 17.3114C19.3997 17.3755 19.7916 17.521 20.0067 17.7484C20.2214 17.9754 20.3292 18.2687 20.3292 18.629C20.3292 18.9893 20.2917 19.2771 20.2177 19.4914C20.1436 19.7057 20.0372 19.8699 19.8989 19.9836C19.6467 20.1759 19.3158 20.2873 18.9056 20.3167L18.8831 21.064H17.9264L17.9564 20.3167C17.4867 20.2826 17.0888 20.2227 16.7625 20.1389L16.9772 18.9622C17.3878 19.0707 17.8177 19.125 18.2677 19.125C18.4556 19.125 18.6309 19.1152 18.7941 19.0955V18.7844L18.3342 18.7324C17.7408 18.6735 17.3456 18.5008 17.1478 18.2145C16.9748 17.9632 16.8886 17.6347 16.8886 17.23C16.8886 16.6975 16.9983 16.3101 17.2186 16.0682C17.4384 15.8263 17.7483 15.678 18.1491 15.6242L18.1711 15.0094ZM18.6769 22.6754C18.022 22.7302 18.1406 23.666 18.7275 23.6173C19.0617 23.6014 19.4255 23.5462 19.7503 23.4652C20.3531 23.3146 20.1258 22.3989 19.5202 22.5505C19.2412 22.6183 18.9633 22.6581 18.6769 22.6754ZM21.0764 21.8491C20.5673 22.2052 21.1083 22.9782 21.6178 22.6221C21.8939 22.4326 22.1733 22.1954 22.4062 21.9553C22.8342 21.5281 22.1808 20.8469 21.728 21.2984C21.5405 21.4944 21.3005 21.6956 21.0764 21.8491ZM22.6898 19.8825C22.4367 20.4379 23.2913 20.8408 23.5538 20.2643C23.6981 19.9382 23.7947 19.6355 23.8847 19.2916C24.0333 18.6997 23.1197 18.4578 22.9659 19.0721C22.8844 19.3636 22.8136 19.6037 22.6898 19.8825ZM23.0592 17.3694C23.1581 17.9641 24 17.8832 24 17.2988L23.9963 17.2478C23.9494 16.9006 23.8786 16.5806 23.7727 16.2455C23.5716 15.6434 22.6805 15.9564 22.8731 16.5338C22.9594 16.8064 23.0216 17.086 23.0592 17.3694ZM9.25266 15.321H11.5692C11.2688 16.1192 11.1033 16.9839 11.1033 17.8869C11.1033 18.0549 11.1098 18.222 11.1211 18.3871H9.25266C9.05531 18.3871 8.89219 18.2257 8.89219 18.0282V15.6803C8.89219 15.4829 9.05438 15.321 9.25266 15.321ZM9.25266 10.329H12.0792C12.2775 10.329 12.4392 10.4913 12.4392 10.6883V13.0358C12.4392 13.2323 12.2766 13.3951 12.0792 13.3951H9.25266C9.05531 13.3951 8.89219 13.2332 8.89219 13.0358V10.6883C8.89219 10.4904 9.05438 10.329 9.25266 10.329ZM3.55125 10.329H6.37781C6.57609 10.329 6.73828 10.4913 6.73828 10.6883V13.0358C6.73828 13.2323 6.57516 13.3951 6.37781 13.3951H3.55125C3.35391 13.3951 3.19125 13.2332 3.19125 13.0358V10.6883C3.19125 10.4904 3.35344 10.329 3.55125 10.329ZM14.9536 10.329H17.7806C17.948 10.329 18.0891 10.445 18.1294 10.5994C16.8361 10.6481 15.6295 11.0322 14.5936 11.6667V10.6883C14.5936 10.4904 14.7558 10.329 14.9536 10.329ZM3.55125 15.321H6.37781C6.57609 15.321 6.73828 15.4838 6.73828 15.6803V18.0282C6.73828 18.2248 6.57516 18.3871 6.37781 18.3871H3.55125C3.35391 18.3871 3.19125 18.2257 3.19125 18.0282V15.6803C3.19125 15.4829 3.35344 15.321 3.55125 15.321ZM13.7953 1.16233C13.7953 0.732334 14.2214 0.382812 14.7478 0.382812C15.2747 0.382812 15.7008 0.732334 15.7008 1.16233V4.78809C15.7008 5.21809 15.2747 5.56761 14.7478 5.56761C14.2214 5.56761 13.7953 5.21809 13.7953 4.78809V1.16233ZM5.26688 1.16233C5.26688 0.732334 5.69297 0.382812 6.21938 0.382812C6.74625 0.382812 7.17234 0.732334 7.17234 1.16233V4.78809C7.17234 5.21809 6.74625 5.56761 6.21938 5.56761C5.69297 5.56761 5.26688 5.21809 5.26688 4.78809V1.16233Z" fill="#222222"/>
</g>
<defs>
<clipPath id="clip0_9383_7038">
<rect width="24" height="23.2364" fill="white" transform="translate(0 0.382812)"/>
</clipPath>
</defs>
</svg>
