<svg width="30" height="31" viewBox="0 0 30 31" fill="none" xmlns="http://www.w3.org/2000/svg">
<path d="M25.6055 16.2752H22.6689C22.2692 16.2752 21.8822 16.3298 21.514 16.4303C20.7875 15.0022 19.3044 14.021 17.5954 14.021H12.4046C10.6956 14.021 9.21246 15.0022 8.48602 16.4303C8.10967 16.3274 7.72128 16.2753 7.33113 16.2752H4.39453C1.97139 16.2752 0 18.2466 0 20.6697V25.3642C0 26.818 1.18283 28.0009 2.63672 28.0009H27.3633C28.8172 28.0009 30 26.818 30 25.3642V20.6697C30 18.2466 28.0286 16.2752 25.6055 16.2752ZM8.01006 18.4156V26.2431H2.63672C2.15209 26.2431 1.75781 25.8488 1.75781 25.3642V20.6698C1.75781 19.2159 2.94064 18.0331 4.39453 18.0331H7.33113C7.56973 18.0331 7.80076 18.0655 8.02072 18.1252C8.01398 18.2219 8.01043 18.3187 8.01006 18.4156ZM20.2321 26.2431H9.76787V18.4156C9.76787 16.9617 10.9507 15.7789 12.4046 15.7789H17.5954C19.0493 15.7789 20.2321 16.9617 20.2321 18.4156V26.2431ZM28.2422 25.3642C28.2422 25.8488 27.8479 26.2431 27.3633 26.2431H21.9899V18.4156C21.9896 18.3187 21.986 18.2218 21.9793 18.1251C22.2041 18.064 22.4359 18.0331 22.6689 18.033H25.6055C27.0594 18.033 28.2422 19.2159 28.2422 20.6697V25.3642Z" fill="#18191B"/>
<path d="M5.86289 7.97559C3.70963 7.97559 1.95786 9.72736 1.95786 11.8806C1.9578 14.0339 3.70963 15.7857 5.86289 15.7857C8.0161 15.7857 9.76793 14.0339 9.76793 11.8806C9.76793 9.72736 8.01616 7.97559 5.86289 7.97559ZM5.86284 14.0279C4.67883 14.0279 3.71561 13.0646 3.71561 11.8806C3.71561 10.6966 4.67883 9.7334 5.86284 9.7334C7.04684 9.7334 8.01006 10.6966 8.01006 11.8806C8.01006 13.0646 7.04684 14.0279 5.86284 14.0279ZM15 3.12549C12.1233 3.12549 9.78293 5.46584 9.78293 8.34256C9.78293 11.2193 12.1233 13.5596 15 13.5596C17.8767 13.5596 20.2171 11.2193 20.2171 8.34256C20.2171 5.4659 17.8767 3.12549 15 3.12549ZM15 11.8018C13.0925 11.8018 11.5407 10.25 11.5407 8.34256C11.5407 6.43516 13.0925 4.8833 15 4.8833C16.9075 4.8833 18.4593 6.4351 18.4593 8.34256C18.4593 10.25 16.9075 11.8018 15 11.8018ZM24.1371 7.97559C21.9839 7.97559 20.2321 9.72736 20.2321 11.8806C20.2321 14.0339 21.9839 15.7857 24.1371 15.7857C26.2904 15.7857 28.0422 14.0339 28.0422 11.8806C28.0422 9.72736 26.2904 7.97559 24.1371 7.97559ZM24.1371 14.0279C22.9532 14.0279 21.9899 13.0646 21.9899 11.8806C21.9899 10.6966 22.9532 9.7334 24.1371 9.7334C25.3211 9.7334 26.2843 10.6966 26.2843 11.8806C26.2843 13.0646 25.3211 14.0279 24.1371 14.0279Z" fill="#18191B"/>
</svg>
